<svg xmlns="http://www.w3.org/2000/svg" xmlns:xlink="http://www.w3.org/1999/xlink" viewBox="0,0,256,256" width="64px" height="64px"><g fill="#000000" fill-rule="nonzero" stroke="none" stroke-width="1" stroke-linecap="butt" stroke-linejoin="miter" stroke-miterlimit="10" stroke-dasharray="" stroke-dashoffset="0" font-family="none" font-weight="none" font-size="none" text-anchor="none" style="mix-blend-mode: normal"><g transform="scale(4,4)"><path d="M32,3l-31,25l0.49219,0.6543c1.367,1.823 3.97728,2.13741 5.73828,0.69141l24.76953,-20.3457l24.76953,20.3457c1.761,1.446 4.37128,1.13159 5.73828,-0.69141l0.49219,-0.6543l-9,-7.25781v-12.74219h-9v5.48438zM32,13l-24,19v24h48v-21zM26,34h12v18h-12z"></path></g></g><g fill="#ffffff" fill-rule="nonzero" stroke="none" stroke-width="1" stroke-linecap="butt" stroke-linejoin="miter" stroke-miterlimit="10" stroke-dasharray="" stroke-dashoffset="0" font-family="none" font-weight="none" font-size="none" text-anchor="none" style="mix-blend-mode: normal"><g><path d="M59.76,207.975h-6.66v-2.13c0.70667,-0.40667 1.46333,-0.76 2.27,-1.06c0.8,-0.3 1.57333,-0.48667 2.32,-0.56v0v-31.7c-0.74667,-0.14667 -1.53,-0.36 -2.35,-0.64c-0.82,-0.28 -1.56667,-0.60667 -2.24,-0.98v0v-2.13h9.02c1.41333,0 2.75667,-0.05667 4.03,-0.17c1.26667,-0.11333 2.72333,-0.17 4.37,-0.17v0c1.78667,0 3.52,0.13333 5.2,0.4c1.68,0.26 3.17333,0.72667 4.48,1.4c1.30667,0.66667 2.35333,1.60667 3.14,2.82c0.78667,1.21333 1.18,2.77333 1.18,4.68v0c0,1.19333 -0.21667,2.30333 -0.65,3.33c-0.42667,1.02667 -1.02333,1.93333 -1.79,2.72c-0.76667,0.78 -1.66333,1.43333 -2.69,1.96c-1.02667,0.52 -2.13667,0.89333 -3.33,1.12v0v0.22c1.19333,0.15333 2.39667,0.43333 3.61,0.84c1.21333,0.41333 2.30667,1.01 3.28,1.79c0.96667,0.78667 1.76,1.76667 2.38,2.94c0.61333,1.18 0.92,2.57333 0.92,4.18v0c0,2.01333 -0.44667,3.74667 -1.34,5.2c-0.9,1.46 -2.10333,2.65667 -3.61,3.59c-1.51333,0.93333 -3.24,1.61333 -5.18,2.04c-1.94667,0.43333 -3.96333,0.65 -6.05,0.65v0c-0.78667,0 -1.64667,-0.02 -2.58,-0.06c-0.93333,-0.04 -1.86667,-0.07667 -2.8,-0.11c-0.93333,-0.04 -1.83667,-0.07667 -2.71,-0.11c-0.88,-0.04 -1.62,-0.06 -2.22,-0.06zM70.01,204.675v0c2.35333,0 4.20333,-0.7 5.55,-2.1c1.34,-1.4 2.01,-3.26 2.01,-5.58v0c0,-1.41333 -0.22333,-2.58 -0.67,-3.5c-0.44667,-0.91333 -1.06333,-1.64 -1.85,-2.18c-0.78,-0.54 -1.71333,-0.91333 -2.8,-1.12c-1.08,-0.20667 -2.25667,-0.31 -3.53,-0.31v0h-2.96v14.39c0.52,0.11333 1.07,0.20667 1.65,0.28c0.58,0.08 1.44667,0.12 2.6,0.12zM65.76,186.245h1.79c0.63333,0 1.26667,-0.02667 1.9,-0.08c0.63333,-0.06 1.23,-0.12667 1.79,-0.2v0c1.46,-0.59333 2.63667,-1.51667 3.53,-2.77c0.9,-1.25333 1.35,-2.68 1.35,-4.28v0c0,-2.35333 -0.61667,-4.08 -1.85,-5.18c-1.23333,-1.10667 -2.82,-1.66 -4.76,-1.66v0c-0.82,0 -1.53,0.02 -2.13,0.06c-0.6,0.04 -1.14,0.09667 -1.62,0.17v0zM171.2,207.975h-6.16v-2.13c0.64,-0.37333 1.35,-0.7 2.13,-0.98c0.78667,-0.28 1.61,-0.49333 2.47,-0.64v0v-31.7c-0.86,-0.18667 -1.69333,-0.42 -2.5,-0.7c-0.8,-0.28 -1.5,-0.58667 -2.1,-0.92v0v-2.13h6.5c0.63333,0 1.41667,-0.02 2.35,-0.06c0.93333,-0.03333 1.90333,-0.08 2.91,-0.14c1.01333,-0.05333 1.99333,-0.10667 2.94,-0.16c0.95333,-0.06 1.76667,-0.09 2.44,-0.09v0c3.24667,0 6.15,0.43 8.71,1.29c2.55333,0.86 4.71667,2.11 6.49,3.75c1.77333,1.64667 3.13667,3.68333 4.09,6.11c0.95333,2.42667 1.43,5.22667 1.43,8.4v0c0,3.09333 -0.44667,5.91 -1.34,8.45c-0.9,2.54 -2.24667,4.70667 -4.04,6.5c-1.78667,1.79333 -4.05333,3.18333 -6.8,4.17c-2.74667,0.98667 -5.96667,1.48 -9.66,1.48v0c-0.48667,0 -1.14,-0.02667 -1.96,-0.08c-0.82,-0.05333 -1.69667,-0.11 -2.63,-0.17c-0.93333,-0.05333 -1.86667,-0.11 -2.8,-0.17c-0.93333,-0.05333 -1.75667,-0.08 -2.47,-0.08zM181.45,171.965v0c-0.67333,0 -1.34333,0.02 -2.01,0.06c-0.67333,0.03333 -1.25333,0.09 -1.74,0.17v0v32.42c0.14667,0.04 0.40667,0.06667 0.78,0.08c0.37333,0.02 0.75667,0.04 1.15,0.06c0.39333,0.02 0.77667,0.04 1.15,0.06c0.37333,0.01333 0.65333,0.02 0.84,0.02v0c2.16667,0 4.00667,-0.44667 5.52,-1.34c1.50667,-0.89333 2.74667,-2.10667 3.72,-3.64c0.97333,-1.53333 1.68333,-3.32667 2.13,-5.38c0.44667,-2.05333 0.67,-4.23667 0.67,-6.55v0c0,-2.05333 -0.23333,-4.03 -0.7,-5.93c-0.46667,-1.90667 -1.18667,-3.60667 -2.16,-5.1c-0.96667,-1.49333 -2.22667,-2.68667 -3.78,-3.58c-1.54667,-0.9 -3.40333,-1.35 -5.57,-1.35z"></path></g></g></svg>