<svg width="82" height="41" viewBox="0 0 82 41" fill="none" xmlns="http://www.w3.org/2000/svg">
<g clip-path="url(#clip0_269_2087)">
<path d="M32.0786 40.8959C29.8757 40.2733 28.3207 38.067 28.2921 35.5232C28.2772 34.2022 28.4975 33.3316 29.1015 32.3248C30.8558 29.4004 34.5842 28.9903 36.803 31.4776C37.8523 32.6537 38.1489 33.5264 38.1508 35.4417C38.1522 36.911 38.1126 37.1557 37.7476 37.9321C36.9036 39.7272 35.3522 40.8686 33.5971 40.9858C33.0631 41.0215 32.3798 40.9813 32.0786 40.8959ZM34.1362 36.8868C34.8982 36.2889 35.0241 34.9067 34.3785 34.2272C33.254 33.0437 31.5536 33.9303 31.737 35.6047C31.8763 36.8764 33.2286 37.5991 34.1362 36.8868ZM66.2759 40.8485C64.7701 40.3707 63.4488 38.9847 62.8813 37.2875C62.522 36.2128 62.6117 34.0901 63.0597 33.0669C63.5892 31.8576 64.3289 31.0222 65.3872 30.4383C66.2565 29.9587 66.4908 29.902 67.6011 29.902C68.7107 29.902 68.9461 29.9589 69.8146 30.4375C71.601 31.4219 72.5773 33.1934 72.5725 35.4417C72.5674 37.7868 71.483 39.6407 69.5586 40.5944C68.7258 41.0071 67.1583 41.1284 66.2759 40.8485V40.8485ZM68.6544 36.6771C69.0621 36.2689 69.1293 36.0942 69.1293 35.4417C69.1293 34.7893 69.0621 34.6145 68.6544 34.2064C68.2987 33.8503 68.0345 33.7309 67.6023 33.7309C67.1701 33.7309 66.9059 33.8503 66.5502 34.2064C66.1424 34.6145 66.0753 34.7893 66.0753 35.4417C66.0753 36.0942 66.1424 36.2689 66.5502 36.6771C66.9059 37.0331 67.1701 37.1525 67.6023 37.1525C68.0345 37.1525 68.2987 37.0331 68.6544 36.6771ZM18.3013 31.2079V28.3541H17.7853C16.6243 28.3541 16.1173 26.7026 16.9812 25.7346L17.4063 25.2584H22.0058C27.0577 25.2584 27.2603 25.2236 27.602 24.2992C27.8233 23.7007 27.6915 22.9487 27.2947 22.5461C27.0161 22.2635 26.5536 22.2388 20.1072 22.1626L13.2175 22.0811L12.8177 21.6331C12.2598 21.0077 12.2598 20.0587 12.8178 19.4335L13.2177 18.9854L24.9343 18.9039L36.6509 18.8225L37.0018 18.3653C37.4658 17.7608 37.4658 16.9513 37.0018 16.3468L36.6508 15.8897L18.6815 15.8082L0.712199 15.7267L0.406352 15.384C0.238139 15.1955 0.0658738 14.752 0.0235444 14.3985C-0.0402588 13.8655 0.0133696 13.6667 0.337116 13.2356L0.72765 12.7156L22.1636 12.6733L43.5996 12.631L43.9996 12.1829C44.5577 11.5576 44.5577 10.6086 43.9996 9.9833L43.5997 9.53523L26.5512 9.45376C17.1746 9.40896 9.41426 9.30835 9.30611 9.2302C8.92087 8.95181 8.67554 8.00358 8.8423 7.43748C9.17556 6.30616 8.58936 6.35802 21.0437 6.35802C28.7907 6.35802 32.3559 6.30345 32.5953 6.1812C33.4767 5.7313 33.6456 4.25927 32.8921 3.5952C32.5233 3.27023 32.3443 3.26227 25.4031 3.26227C17.8298 3.26227 17.5125 3.2319 17.1496 2.47211C16.8765 1.9005 16.9632 1.03745 17.3434 0.542215L17.6944 0.0850621L36.6857 0.0425311L55.677 0V14.5029V29.0058H56.5495H57.4221V18.0893V7.17269H63.7378H70.0535L70.3484 7.59267C70.6079 7.96237 73.0041 10.7813 78.4396 17.1117C79.3245 18.1422 80.4867 19.4986 81.0224 20.1259L81.9964 21.2665L81.9982 27.6616L82 34.0568L78.1097 34.0566L74.2195 34.0565L73.9704 33.1067C73.6211 31.7752 72.6955 30.2991 71.6658 29.432C68.9441 27.1398 65.2881 27.4262 62.8837 30.12C62.0451 31.0595 61.2828 32.5208 61.1181 33.5047L61.0255 34.0568H50.4415H39.8574L39.7649 33.5045C39.4749 31.7724 37.7801 29.4872 36.1412 28.6186C32.4303 26.6518 27.9903 28.8895 26.8057 33.3236L26.6316 33.9753L22.4664 34.0185L18.3013 34.0618V31.2079ZM73.9783 15.686C71.3156 12.5719 69.0698 9.97016 68.9877 9.90432C68.9056 9.83849 66.9242 9.7835 64.5846 9.78212L60.3307 9.77963V15.5638V21.3479H69.5752H78.8196L73.9783 15.686Z" fill="#F88500"/>
</g>
<defs>
<clipPath id="clip0_269_2087">
<rect width="82" height="41" fill="white"/>
</clipPath>
</defs>
</svg>
