<svg width="56" height="42" viewBox="0 0 56 42" fill="none" xmlns="http://www.w3.org/2000/svg">
<g clip-path="url(#clip0_269_2075)">
<path d="M26.6738 41.5306C24.4853 40.5257 0.827468 28.8179 0.428663 28.5424C-0.0745575 28.1948 -0.141857 27.3912 0.293155 26.9243C0.637719 26.5545 1.69203 26.3761 2.23701 26.5953C2.45252 26.682 8.29801 29.548 15.227 32.9641C22.156 36.3802 27.9038 39.1752 28 39.1752C28.0962 39.1752 33.844 36.3802 40.773 32.9641C47.702 29.548 53.5475 26.682 53.763 26.5953C54.308 26.3761 55.3623 26.5545 55.7069 26.9243C56.1418 27.3912 56.0746 28.1947 55.5714 28.5429C55.1732 28.8185 31.5224 40.5223 29.3262 41.5306C28.764 41.7888 28.1672 42 28 42C27.8329 42 27.2361 41.7888 26.6738 41.5306V41.5306ZM27.0184 34.859C25.9961 34.442 25.8058 33.5187 26.6165 32.9092C27.6943 32.0991 29.8788 32.6255 29.8788 33.6954C29.8788 34.2584 29.5961 34.6121 28.9432 34.8659C28.2608 35.1312 27.6804 35.1291 27.0184 34.859V34.859ZM22.2486 32.479C20.9164 32.0357 20.4688 31.1133 21.2321 30.3838C21.7214 29.9161 22.3732 29.8386 23.2718 30.141C24.6021 30.5888 25.0101 31.4852 24.1955 32.1706C23.6595 32.6215 22.994 32.7269 22.2486 32.479ZM32.3883 32.5381C31.4614 32.2569 31.1088 31.3392 31.6886 30.7169C32.0825 30.2941 33.3259 29.8749 33.9288 29.9615C34.5597 30.0522 35.1394 30.6393 35.1394 31.1875C35.1394 31.7151 34.6021 32.2015 33.7098 32.4818C33.002 32.7041 32.9439 32.7066 32.3883 32.5381ZM16.8212 29.8297C15.9689 29.4754 15.6 29.1005 15.6 28.589C15.6 27.1946 17.6973 26.8923 18.9652 28.104C19.4877 28.6034 19.4599 29.034 18.8711 29.56C18.3487 30.0267 17.5483 30.1321 16.8212 29.8297V29.8297ZM37.1289 29.56C36.5402 29.034 36.5123 28.6034 37.0348 28.104C37.9103 27.2673 39.4845 27.0974 40.1129 27.7718C40.5481 28.2389 40.4807 29.0427 39.9774 29.3873C38.8787 30.1396 37.8476 30.2021 37.1289 29.56V29.56ZM27.177 28.278C25.6889 27.6282 0.42398 15.0956 0.240784 14.9164C-0.150266 14.5338 -0.0489983 13.6981 0.428663 13.3659C0.661165 13.2043 6.81188 10.1308 14.0969 6.53604C25.1985 1.05799 27.4489 6.49738e-05 28 3.12841e-09C28.5513 -6.63799e-05 30.7985 1.05629 41.9031 6.5355C49.1882 10.1301 55.3389 13.2036 55.5714 13.3655C56.049 13.6981 56.1502 14.5338 55.7593 14.9164C55.5585 15.1129 29.8104 27.8737 28.7705 28.292C28.2992 28.4816 27.6298 28.4758 27.177 28.278V28.278ZM11.5605 27.2411C10.7198 26.9114 10.3393 26.4959 10.3393 25.9076C10.3393 24.881 11.7472 24.4395 13.0663 25.0524C15.032 25.9657 13.6034 28.0422 11.5605 27.2411ZM42.8893 27.3065C42.6567 27.2362 42.3269 26.9588 42.1564 26.69C41.8941 26.2766 41.8831 26.1347 42.0847 25.7687C42.596 24.8409 44.4503 24.4538 45.2641 25.1051C46.0907 25.7665 45.7121 26.7769 44.4721 27.2193C43.7439 27.479 43.504 27.4923 42.8893 27.3065ZM5.8879 24.475C5.54018 24.3076 5.19798 23.9811 5.07385 23.6983C4.89256 23.2854 4.91372 23.141 5.21175 22.7574C5.69069 22.1409 6.49719 21.9747 7.41713 22.3028C8.71019 22.7641 9.1075 23.7475 8.2712 24.4167C7.71983 24.8579 6.73318 24.8821 5.8879 24.475V24.475ZM47.7288 24.4167C46.8925 23.7475 47.2898 22.7641 48.5829 22.3028C49.5028 21.9747 50.3093 22.1409 50.7883 22.7574C51.087 23.1418 51.1077 23.2849 50.9249 23.7011C50.4916 24.6884 48.5981 25.1123 47.7288 24.4167V24.4167ZM0.903087 22.0131C0.261756 21.7428 0.00593394 21.3903 0.00593394 20.7772C0.00593394 19.7429 1.65021 19.3162 2.80972 20.0497C3.89636 20.737 3.4486 22.0198 2.07261 22.1613C1.6751 22.2022 1.21256 22.1436 0.903087 22.0131ZM53.423 22.0841C52.8905 21.9228 52.6123 21.5186 52.6123 20.9064C52.6123 20.5314 52.7489 20.3289 53.1903 20.0497C54.3626 19.3081 55.9941 19.7429 55.9941 20.797C55.9941 21.4046 55.7255 21.7537 55.0585 22.013C54.4473 22.2506 54.0323 22.2686 53.423 22.0841Z" fill="#F88500"/>
</g>
<defs>
<clipPath id="clip0_269_2075">
<rect width="56" height="42" fill="white"/>
</clipPath>
</defs>
</svg>
