<svg width="70" height="42" viewBox="0 0 70 42" fill="none" xmlns="http://www.w3.org/2000/svg">
<path d="M14.9709 41.5879C15.0011 41.3613 15.0779 40.983 15.1415 40.7474C15.2051 40.5118 15.2571 40.2049 15.2571 40.0655C15.2571 39.9261 15.2948 39.7901 15.3409 39.7635C15.387 39.7368 15.4248 39.5464 15.4248 39.3404C15.4248 39.1343 15.4531 38.9396 15.4876 38.9077C15.5445 38.8552 15.6898 38.158 15.8163 37.3311C15.8427 37.1585 15.8909 36.9996 15.9235 36.978C15.956 36.9564 16.0278 36.6563 16.083 36.3111C16.1383 35.9658 16.2037 35.5598 16.2285 35.4087C16.2532 35.2577 16.3055 35.0635 16.3446 34.9772C16.4118 34.829 16.569 34.0516 16.654 33.4471C16.6753 33.2961 16.7251 33.1019 16.7646 33.0156C16.8042 32.9293 16.8595 32.7351 16.8876 32.584C17.0645 31.6309 17.1511 31.256 17.2064 31.2042C17.2409 31.1719 17.2688 31.0719 17.2684 30.982C17.2674 30.7473 17.5507 29.725 17.6254 29.6939C17.66 29.6795 17.6883 29.5824 17.6883 29.4781C17.6883 29.3738 17.7219 29.2885 17.763 29.2885C17.8041 29.2885 17.8615 29.2002 17.8904 29.0923C17.9193 28.9844 17.98 28.8962 18.0252 28.8962C18.0704 28.8962 18.1075 28.8593 18.1075 28.8143C18.1075 28.7398 18.5842 28.2124 18.8419 28.0018C18.9 27.9543 19.0937 27.783 19.2722 27.6212C19.4507 27.4593 19.6217 27.3269 19.6522 27.3269C19.6827 27.3269 19.8093 27.2387 19.9336 27.1308C20.058 27.0229 20.2041 26.9346 20.2583 26.9346C20.3126 26.9346 20.3696 26.9044 20.3849 26.8676C20.4167 26.7913 21.5839 26.1119 22.0895 25.8753C22.274 25.789 22.4437 25.7008 22.4668 25.6792C22.5136 25.6353 23.061 25.3864 24.1854 24.8976C24.6004 24.7172 25.0054 24.5368 25.0854 24.4967C25.1655 24.4566 25.2881 24.4238 25.3579 24.4238C25.4277 24.4238 25.4848 24.3885 25.4848 24.3453C25.4848 24.3021 25.533 24.2668 25.5919 24.2668C25.7076 24.2668 26.3878 23.9468 26.9937 23.6071C27.2012 23.4908 27.4747 23.3544 27.6015 23.304C27.7283 23.2536 27.8321 23.1848 27.8321 23.1511C27.8321 23.1174 27.8894 23.0899 27.9595 23.0899C28.0296 23.0899 28.2363 23.0016 28.4189 22.8937C28.6015 22.7858 28.8065 22.6976 28.8744 22.6976C29.0317 22.6976 29.1723 22.2315 29.1729 21.708L29.1734 21.307L30.6825 21.0978V20.6461C30.6824 20.0282 30.5312 19.402 30.3821 19.402C30.3167 19.402 30.2633 19.3667 30.2633 19.3236C30.2633 19.2804 30.2252 19.2451 30.1787 19.2451C30.0473 19.2451 29.5926 18.8393 29.5926 18.7221C29.5926 18.6645 29.5641 18.6174 29.5292 18.6174C29.4214 18.6174 29.0057 17.6477 29.0057 17.3963C29.0057 17.2962 28.968 17.1925 28.9219 17.1658C28.8758 17.1392 28.8381 16.9105 28.8381 16.6576C28.8381 16.105 28.7838 15.9496 28.5905 15.9496C28.3501 15.9496 27.9305 15.7187 27.7622 15.4937C27.5686 15.2348 27.5057 14.9969 27.4105 14.1626C27.3697 13.8055 27.3087 13.4714 27.2748 13.4201C27.2117 13.3245 27.1025 12.849 27.0207 12.3139C26.994 12.1392 27.0139 11.9762 27.0681 11.9255C27.1194 11.8775 27.1614 11.7818 27.1614 11.7128C27.1614 11.6439 27.3123 11.4496 27.4967 11.2811C27.8742 10.9361 27.8768 10.9278 27.7142 10.5867C27.6494 10.4508 27.5322 10.1629 27.4538 9.94717C27.3755 9.7314 27.2793 9.48424 27.2402 9.39793C27.0146 8.89983 26.982 8.54863 27.0256 7.08324C27.0749 5.42843 27.1407 4.65666 27.2429 4.53316C27.2787 4.49 27.3337 4.2878 27.3652 4.08382C27.3968 3.87983 27.4581 3.69238 27.5016 3.66725C27.545 3.64212 27.5805 3.53537 27.5805 3.43003C27.5805 3.32469 27.6142 3.2385 27.6553 3.2385C27.6964 3.2385 27.7537 3.1504 27.7825 3.04272C27.8114 2.93504 28.0136 2.67715 28.2318 2.46964C28.624 2.09661 29.0972 1.90461 29.6242 1.90461C29.7984 1.90461 29.8212 1.86801 29.8212 1.58758C29.8212 1.36341 29.8785 1.21345 30.0169 1.0756C30.2593 0.834064 30.9011 0.492259 31.1121 0.492259C31.1985 0.492259 31.2692 0.46521 31.2692 0.432151C31.2692 0.379381 31.9662 0.212217 32.862 0.0501657C33.3129 -0.0314055 35.6085 -0.00857587 36.1735 0.0830929C36.8219 0.188297 37.4699 0.32761 37.6825 0.407494C37.7747 0.442151 37.9929 0.528361 38.1673 0.599081C38.3418 0.669796 38.5399 0.727653 38.6075 0.727653C38.6751 0.727653 38.7304 0.758843 38.7304 0.796965C38.7304 0.835087 38.7964 0.887027 38.8771 0.912386C39.1466 0.997088 39.9113 1.51934 40.3359 1.90864C40.7301 2.27009 41.228 3.1071 41.3836 3.67008C41.4075 3.75639 41.4581 3.89763 41.4961 3.98394C41.6763 4.39383 41.7903 5.91345 41.7903 7.90714C41.7903 9.07233 41.7714 10.2006 41.7484 10.4143C41.7079 10.7895 41.7151 10.8057 41.958 10.8838C42.3207 11.0005 42.5739 11.3042 42.637 11.6984C42.6976 12.0763 42.6237 12.9495 42.508 13.2245C42.4674 13.3208 42.3694 13.6115 42.2901 13.8704C42.2109 14.1293 42.1131 14.3747 42.0729 14.4157C42.0328 14.4567 41.9999 14.5685 41.9999 14.6642C41.9999 14.7598 41.9716 14.8499 41.937 14.8643C41.9024 14.8787 41.7987 15.0317 41.7065 15.2043C41.5281 15.5381 41.2711 15.7859 41.0987 15.7902C41.041 15.7916 40.9939 15.8319 40.9939 15.8797C40.9939 15.932 40.9148 15.9481 40.7958 15.9202C40.6087 15.8762 40.595 15.8985 40.5473 16.3236C40.4496 17.1949 40.3099 17.9513 40.2331 18.025C40.1905 18.066 40.1555 18.1808 40.1555 18.28C40.1555 18.3793 40.1178 18.4605 40.0717 18.4605C40.0256 18.4605 39.9877 18.5046 39.9875 18.5586C39.9869 18.6925 39.4908 19.1822 39.2261 19.3101C39.0246 19.4074 39.0147 19.4383 39.075 19.7809C39.1105 19.9825 39.1418 20.3625 39.1445 20.6253L39.1495 21.1031L39.7573 21.2023C40.0916 21.2569 40.4123 21.3144 40.4699 21.3301C40.5408 21.3495 40.5747 21.5359 40.5747 21.9068C40.5747 22.58 40.6742 22.798 41.0666 22.9844C41.2341 23.064 41.39 23.1476 41.413 23.1701C41.5302 23.2849 41.9259 23.4822 42.0388 23.4822C42.1096 23.4822 42.1675 23.5175 42.1675 23.5606C42.1675 23.6038 42.2042 23.6391 42.2491 23.6391C42.3191 23.6391 43.0324 23.9207 43.425 24.1034C43.5613 24.1668 45.1024 24.6159 45.6466 24.7508C45.831 24.7965 46.0574 24.8615 46.1496 24.8952C46.2418 24.9289 46.5059 25.0165 46.7364 25.0899C47.3333 25.28 48.9251 25.959 49.0419 26.0733C49.0649 26.0959 49.19 26.1776 49.3199 26.255C49.7363 26.5032 50.4534 27.1203 50.8443 27.5669C51.0588 27.8119 51.3063 28.4699 51.3058 28.7935C51.3056 28.9312 51.3391 29.0634 51.3804 29.0872C51.4216 29.1111 51.4744 29.2632 51.4976 29.4253C51.5513 29.7998 51.7048 30.3797 51.8042 30.5832C51.8463 30.6695 51.8995 30.846 51.9223 30.9755C52.0061 31.4503 52.1526 31.999 52.231 32.1317C52.2752 32.2067 52.3114 32.3551 52.3114 32.4615C52.3114 32.568 52.3464 32.7361 52.3892 32.8353C52.432 32.9344 52.5294 33.298 52.6056 33.6432C52.6819 33.9885 52.7789 34.3322 52.8213 34.4072C52.8636 34.4821 52.8982 34.6006 52.8982 34.6706C52.8982 34.8384 53.1486 35.8756 53.2373 36.0756C53.2756 36.1619 53.3238 36.3561 53.3443 36.5072C53.3989 36.9083 53.5796 37.6988 53.6582 37.8803C53.6956 37.9666 53.7435 38.1608 53.7648 38.3119C53.8498 38.9162 54.007 39.6937 54.0742 39.8419C54.156 40.0224 54.2478 40.804 54.2678 41.4897L54.2815 41.9604L14.9157 42L14.9706 41.5879L14.9709 41.5879ZM55.1616 36.8855C55.1616 36.7483 55.127 36.5276 55.0846 36.3951C55.0057 36.148 54.8388 35.3966 54.7698 34.9772C54.7485 34.8477 54.7007 34.6712 54.6636 34.5848C54.6266 34.4985 54.5307 34.1454 54.4505 33.8002C54.3704 33.455 54.2762 33.1019 54.2411 33.0156C54.1827 32.8721 53.9021 31.8395 53.7399 31.1717C53.5812 30.5182 53.4601 30.1031 53.3912 29.9762C53.3505 29.9013 53.3173 29.7583 53.3173 29.6584C53.3173 29.5586 53.2806 29.4426 53.2358 29.4006C53.191 29.3587 53.1289 29.068 53.0978 28.7547C53.0667 28.4414 53.009 28.1665 52.9697 28.1437C52.9303 28.121 52.8981 28.0198 52.8981 27.9189C52.8981 27.5251 52.2851 26.598 51.5987 25.9537C51.2298 25.6074 50.84 25.2606 50.7324 25.1829C50.3577 24.9126 49.4572 24.4238 49.3338 24.4238C49.2654 24.4238 49.2095 24.3968 49.2095 24.3638C49.2095 24.3008 48.5976 24.0314 48.4544 24.0314C48.4086 24.0314 48.3711 23.9986 48.3711 23.9584C48.3711 23.9183 48.2863 23.8741 48.1825 23.8604C48.0613 23.8442 47.9843 23.7722 47.9671 23.6587C47.9524 23.5616 47.974 23.4822 48.0151 23.4822C48.0563 23.4822 48.1772 23.3186 48.2839 23.1187C48.4732 22.7638 49.1275 22.0698 49.2726 22.0698C49.3127 22.0698 49.4186 22.0067 49.508 21.9296C49.5974 21.8525 49.7931 21.7423 49.943 21.6847L50.2155 21.58V20.8237C50.2155 19.9767 50.1866 19.9318 49.5761 19.8287C49.3975 19.7986 49.2136 19.7497 49.1675 19.72C49.1214 19.6904 48.8573 19.6021 48.5807 19.5239C48.304 19.4457 47.991 19.351 47.8851 19.3134C47.7792 19.2759 47.6189 19.2451 47.5288 19.2451C47.4388 19.2451 47.3651 19.2143 47.3651 19.1767C47.3651 19.1391 47.2223 19.0869 47.0477 19.0608C46.8731 19.0346 46.543 18.9243 46.3141 18.8157C46.0853 18.707 45.8509 18.6179 45.7932 18.6177C45.7356 18.6177 45.6884 18.5821 45.6884 18.539C45.6884 18.4958 45.7221 18.4605 45.7632 18.4605C45.8043 18.4605 45.8616 18.3722 45.8905 18.2643C45.9195 18.1564 45.9801 18.0682 46.0254 18.0682C46.0706 18.0682 46.1076 17.9799 46.1076 17.872C46.1076 17.7641 46.1453 17.6759 46.1914 17.6759C46.2375 17.6759 46.2753 17.6059 46.2753 17.5205C46.2753 17.4351 46.3366 17.2218 46.4115 17.0465C46.5704 16.6747 46.5201 16.5673 46.3022 16.8134C45.789 17.3932 44.8501 18.1699 44.8501 18.0147C44.8501 17.975 44.8847 17.9091 44.9271 17.8681C45.0525 17.7466 45.6884 16.5587 45.6884 16.4458C45.6884 16.3887 45.7261 16.3419 45.7722 16.3419C45.8183 16.3419 45.8561 16.3031 45.8561 16.2557C45.8561 16.1719 46.0443 15.7341 46.1974 15.4619C46.2928 15.2922 46.4462 14.7398 46.4978 14.3804C46.5194 14.2293 46.5686 14.0351 46.6071 13.9488C46.6825 13.7797 46.8501 12.6862 46.956 11.6734C46.9921 11.3281 47.0571 10.8338 47.1005 10.5749C47.1438 10.3159 47.2246 9.76864 47.2799 9.35866C47.3352 8.94869 47.412 8.54264 47.4505 8.45633C47.489 8.37002 47.5422 8.14051 47.5688 7.94631C47.6539 7.3249 47.8244 6.54871 47.8891 6.48806C47.9237 6.45575 47.9519 6.34644 47.9519 6.24516C47.9519 6.14389 47.9865 5.99971 48.0288 5.92477C48.0711 5.84984 48.2681 5.47957 48.4667 5.102C48.6653 4.72442 48.857 4.41544 48.8928 4.41544C48.9286 4.41544 48.9579 4.37523 48.9579 4.32609C48.9579 4.20471 49.8118 3.39943 49.943 3.39723C50.0006 3.39621 50.0477 3.36786 50.0477 3.33417C50.0477 3.30048 50.1515 3.23124 50.2783 3.18031C50.4051 3.12938 50.7121 2.98041 50.9606 2.84926C51.209 2.7181 51.4637 2.6108 51.5264 2.6108C51.5892 2.6108 51.6406 2.57949 51.6406 2.54124C51.6406 2.50298 51.7443 2.45257 51.8711 2.42921C52.2699 2.35574 52.8485 2.20089 53.0499 2.11374C53.3193 1.99718 55.4737 2.00846 55.6005 2.12709C55.6542 2.17735 55.7841 2.21848 55.8892 2.21848C56.0973 2.21848 56.5481 2.36544 57.2388 2.65848C57.4821 2.76172 57.7179 2.84619 57.7627 2.84619C57.8076 2.84619 57.8443 2.87738 57.8443 2.9155C57.8443 2.95362 57.9103 3.00432 57.991 3.02815C58.4418 3.16133 59.6886 4.11849 59.6886 4.33136C59.6886 4.37145 59.7367 4.4509 59.7955 4.50793C60.0049 4.71105 60.6884 6.11699 60.7444 6.4598C60.7757 6.65165 60.8299 6.84392 60.8647 6.88707C60.8996 6.93023 60.9483 7.12443 60.9731 7.31862C60.9978 7.51282 61.0804 8.00715 61.1567 8.41712C61.3494 9.45206 61.6008 11.049 61.7868 12.4188C61.9541 13.6507 62.1535 14.6097 62.2964 14.8697C62.3376 14.9446 62.3715 15.0682 62.3718 15.1443C62.372 15.2204 62.4287 15.3838 62.4975 15.5074C62.5664 15.631 62.6228 15.7811 62.6228 15.8409C62.6228 15.9007 62.6605 15.9496 62.7066 15.9496C62.7527 15.9496 62.7904 15.9933 62.7904 16.0466C62.7904 16.0999 62.8904 16.3382 63.0126 16.5762C63.1348 16.8142 63.3329 17.2031 63.4527 17.4404C63.5726 17.6777 63.7073 17.8965 63.7521 17.9266C63.7969 17.9566 63.8099 18.0032 63.781 18.0303C63.7001 18.106 62.8621 17.3981 62.3374 16.8106L62.094 16.5381L62.1539 16.8519C62.2635 17.4268 62.5401 18.11 62.7099 18.225C62.7418 18.2466 62.7944 18.3439 62.8268 18.4412C62.871 18.5736 62.8474 18.6301 62.7333 18.6655C62.6495 18.6915 62.4177 18.781 62.2184 18.8644C62.019 18.9477 61.7447 19.0367 61.6088 19.0622C61.4729 19.0876 61.3415 19.1392 61.3166 19.1767C61.2918 19.2143 61.1789 19.2451 61.0657 19.2451C60.9526 19.2451 60.7945 19.2775 60.7144 19.3171C60.5605 19.3932 59.4647 19.7215 58.881 19.8664C58.37 19.9932 58.3394 20.059 58.4026 20.8928C58.4564 21.6028 58.4642 21.6243 58.696 21.7062C58.8269 21.7525 58.9341 21.8179 58.9341 21.8516C58.9341 21.8853 58.9743 21.9128 59.0235 21.9128C59.1233 21.9128 59.6387 22.2598 59.8975 22.5013C59.9901 22.5876 60.1412 22.7989 60.2334 22.9709C60.3257 23.1429 60.4483 23.3308 60.5059 23.3884C60.5635 23.4461 60.6107 23.5209 60.6107 23.5545C60.6107 23.6995 61.1241 24.1004 61.4201 24.1865C61.7475 24.2818 62.0655 24.4057 62.6594 24.6694C62.8409 24.75 63.039 24.816 63.0995 24.816C63.16 24.816 63.2095 24.8506 63.2095 24.893C63.2095 24.9353 63.3038 24.9921 63.4191 25.0192C63.5344 25.0462 63.6287 25.0949 63.6287 25.1272C63.6287 25.2141 64.4564 25.6006 64.6424 25.6006C64.7303 25.6006 64.8023 25.6279 64.8023 25.6613C64.8023 25.729 65.4313 25.9022 65.9136 25.9671C66.0868 25.9904 66.2494 26.0411 66.2749 26.0797C66.3003 26.1183 66.415 26.1499 66.5296 26.1499C66.6442 26.1499 66.9909 26.2077 67.3001 26.2784C67.908 26.4173 68.6878 26.8849 68.7838 27.168C68.8134 27.2554 68.8728 27.3268 68.9158 27.3268C68.9588 27.3268 68.994 27.3798 68.994 27.4445C68.994 27.5093 69.0223 27.5625 69.0569 27.5627C69.1391 27.5635 69.4132 28.0155 69.4132 28.1505C69.4132 28.2082 69.4572 28.2691 69.511 28.2859C69.614 28.318 69.7057 29.6082 69.7996 32.3486C69.827 33.147 69.8833 33.8338 69.9247 33.8747C69.9661 33.9157 70 34.666 70 35.5421V37.1349H55.1614L55.1616 36.8855ZM0.166721 35.8449C0.166721 35.6533 0.128996 35.4746 0.0828873 35.448C-0.0218378 35.3874 -0.0300787 33.5075 0.0739245 33.404C0.115104 33.363 0.171281 32.9234 0.19877 32.4271C0.252959 31.4486 0.422254 30.2773 0.523013 30.1838C0.557595 30.1517 0.585888 30.0409 0.585888 29.9375C0.585888 29.7355 0.799681 29.0227 0.927276 28.7991C0.970056 28.7242 1.00506 28.6123 1.00506 28.5505C1.00506 28.4887 1.06001 28.3381 1.12718 28.216C1.19435 28.0938 1.29787 27.8791 1.35723 27.7388C1.41659 27.5985 1.48699 27.4838 1.51366 27.4838C1.54034 27.4838 1.64897 27.3211 1.75504 27.1223C1.9975 26.668 3.03409 25.6786 3.47816 25.4777C3.6626 25.3943 3.82607 25.2996 3.84144 25.2672C3.8568 25.2348 3.90415 25.2083 3.94664 25.2083C3.98913 25.2083 4.2194 25.1201 4.45835 25.0122C4.69729 24.9043 4.94232 24.816 5.00285 24.816C5.06339 24.816 5.11291 24.7811 5.11291 24.7385C5.11291 24.6958 5.26465 24.6382 5.45011 24.6105C5.63556 24.5827 5.80756 24.5294 5.8323 24.4919C5.85706 24.4544 5.95105 24.4237 6.04117 24.4237C6.13129 24.4237 6.27054 24.3928 6.3506 24.355C6.43066 24.3172 6.72252 24.2225 6.99917 24.1445C7.27582 24.0665 7.5399 23.9812 7.586 23.955C7.63211 23.9288 7.88676 23.8413 8.15188 23.7605C8.41701 23.6797 8.63393 23.584 8.63393 23.5479C8.63393 23.5117 8.71881 23.481 8.82255 23.4796C8.9263 23.4783 9.0844 23.4253 9.17391 23.3619C9.26341 23.2986 9.40488 23.2467 9.48828 23.2467C9.57169 23.2467 9.63993 23.2114 9.63993 23.1683C9.63993 23.1251 9.69703 23.0898 9.76682 23.0898C9.83661 23.0898 9.95922 23.0562 10.0393 23.0152C10.1193 22.9741 10.3357 22.8788 10.5202 22.8035C10.7046 22.7281 10.8744 22.646 10.8974 22.621C10.9205 22.5959 11.1091 22.5068 11.3166 22.4229C11.5241 22.339 11.7127 22.2517 11.7358 22.2289C11.7904 22.175 12.6566 21.783 12.8466 21.7262C12.9273 21.7021 12.9933 21.6107 12.9933 21.523C12.9933 21.4353 13.0272 21.3636 13.0687 21.3636C13.1101 21.3636 13.1643 21.2135 13.189 21.0301C13.2138 20.8467 13.2954 20.4142 13.3704 20.069C13.6181 18.9284 13.6179 18.9625 13.3791 18.7214C13.2591 18.6003 13.1609 18.4568 13.1609 18.4024C13.1609 18.348 13.1273 18.3035 13.0862 18.3035C13.0451 18.3035 12.9878 18.2152 12.9589 18.1073C12.9299 17.9994 12.8692 17.9112 12.824 17.9112C12.7788 17.9112 12.7418 17.8582 12.7418 17.7935C12.7418 17.7287 12.7041 17.6758 12.6579 17.6758C12.6118 17.6758 12.5741 17.6194 12.5741 17.5506C12.5741 17.4817 12.5208 17.3317 12.4557 17.2171C12.23 16.8203 11.9804 16.2508 11.9312 16.0206C11.904 15.8934 11.8489 15.7704 11.8088 15.7471C11.7686 15.7239 11.7358 15.6153 11.7358 15.5058C11.7358 15.3963 11.6765 15.116 11.6041 14.8827C11.4846 14.4982 11.4502 14.4587 11.2343 14.4587C10.973 14.4587 10.5903 14.1062 10.5251 13.8054C10.3688 13.0844 10.3025 12.4774 10.2869 11.6219C10.2673 10.5545 10.2715 10.543 10.7809 10.2551C10.913 10.1804 10.9176 10.1427 10.8206 9.92371C10.6667 9.57581 10.6421 6.11429 10.7926 5.97305C10.8503 5.91898 10.8974 5.81444 10.8974 5.74075C10.8974 5.26385 12.0453 3.94636 12.8047 3.5516C13.0006 3.44973 13.1609 3.34141 13.1609 3.31088C13.1609 3.28035 13.2553 3.23321 13.3705 3.20613C13.4858 3.17905 13.5801 3.12227 13.5801 3.07993C13.5801 3.0376 13.6367 3.00297 13.7059 3.00297C13.775 3.00297 13.8316 2.97004 13.8316 2.92979C13.8316 2.88954 13.9004 2.83618 13.9845 2.81119C14.0686 2.78622 14.2112 2.70439 14.3014 2.62936C14.3916 2.55433 14.5963 2.4241 14.7563 2.33995C14.9163 2.25581 15.1227 2.12051 15.2149 2.0393C15.3071 1.95809 15.4486 1.85798 15.5292 1.81683C15.6592 1.75059 15.676 1.78278 15.676 2.09787C15.676 2.29359 15.6953 2.45372 15.7188 2.45372C15.7424 2.45372 16.1608 2.08024 16.6485 1.62373C17.1362 1.16725 17.5587 0.815703 17.5872 0.842452C17.6158 0.8692 17.6487 1.11885 17.6603 1.39717C17.6719 1.67549 17.7297 1.98293 17.7889 2.08036L17.8964 2.25752L17.9235 2.04174C17.9546 1.79374 18.1088 1.76637 18.473 1.94415C18.6051 2.00862 18.7654 2.06136 18.8293 2.06136C18.8932 2.06136 18.9455 2.08889 18.9455 2.12255C18.9455 2.1562 19.1341 2.25225 19.3646 2.33598C19.5952 2.41971 19.7838 2.50785 19.7838 2.53183C19.7838 2.55581 19.9532 2.64514 20.1603 2.73033C20.3673 2.81552 20.5371 2.91171 20.5375 2.94408C20.5379 2.97644 20.577 3.00293 20.6242 3.00293C20.7307 3.00293 21.8273 3.64175 21.8657 3.72614C21.8811 3.75992 21.9404 3.78757 21.9976 3.78757C22.1822 3.78757 23.1157 4.70253 23.2783 5.04299C23.3092 5.10772 23.3565 5.17834 23.3833 5.19992C23.4858 5.28245 23.7248 6.03524 23.7244 6.27417C23.7242 6.41187 23.7667 6.54923 23.8189 6.57941C23.912 6.63327 23.8867 7.87304 23.7575 9.59392L23.7074 10.2609L24.0091 10.4105C24.1751 10.4928 24.3109 10.6076 24.3109 10.6655C24.3109 10.7235 24.3443 10.7709 24.3852 10.7709C24.5198 10.7709 24.5589 11.423 24.4816 12.3794C24.4398 12.8973 24.3801 13.4347 24.349 13.5738C24.2815 13.8761 23.935 14.2233 23.7009 14.2233C23.4941 14.2233 23.3111 14.4363 23.3075 14.6812C23.3039 14.933 23.0262 15.9042 22.9486 15.9365C22.914 15.9508 22.8857 16.0412 22.8857 16.1372C22.8857 16.2333 22.8303 16.3804 22.7626 16.4642C22.6949 16.5479 22.6383 16.6577 22.6368 16.7081C22.63 16.942 21.7675 18.1713 21.1467 18.8319C21.0136 18.9736 20.9895 19.0868 21.0214 19.4204C21.0432 19.6476 21.0943 19.867 21.135 19.908C21.1757 19.949 21.209 20.1054 21.209 20.2555C21.209 20.4055 21.2712 20.7785 21.3472 21.0843L21.4854 21.6403L22.6675 22.1862C23.3177 22.4864 23.9756 22.8001 24.1293 22.8834L24.409 23.0348L24.0874 23.1459C23.9105 23.207 23.6998 23.2765 23.6191 23.3003C23.5384 23.324 23.4724 23.3747 23.4724 23.4128C23.4724 23.4509 23.3781 23.4821 23.2628 23.4821C23.1476 23.4821 23.0533 23.5174 23.0533 23.5606C23.0533 23.6037 23.0061 23.6398 22.9485 23.6408C22.8908 23.6417 22.6173 23.7469 22.3407 23.8744C22.064 24.002 21.7905 24.1071 21.7329 24.1081C21.6752 24.109 21.6281 24.1365 21.6281 24.1691C21.6281 24.2018 21.5055 24.2772 21.3556 24.3368C21.2058 24.3963 20.8483 24.5815 20.5613 24.7482C20.2742 24.915 20.0149 25.0514 19.9851 25.0514C19.9258 25.0514 19.0149 25.6524 18.7195 25.8864C18.6183 25.9666 18.4297 26.1108 18.3003 26.2069C17.8707 26.5259 17.5641 26.8123 17.185 27.2484C16.9787 27.4857 16.7905 27.6976 16.7668 27.7192C16.7432 27.7407 16.6827 27.829 16.6324 27.9153C16.5821 28.0016 16.4423 28.2386 16.3216 28.4418C16.0477 28.903 15.6759 29.8993 15.6759 30.172C15.6759 30.2846 15.6389 30.4678 15.5937 30.579C15.5485 30.6903 15.4696 31.0016 15.4184 31.2707C15.3168 31.8046 15.2501 32.1028 15.0457 32.9371C14.9716 33.2391 14.878 33.6275 14.8375 33.8002C14.7971 33.9728 14.7031 34.3612 14.6287 34.6633C14.5543 34.9653 14.4631 35.3714 14.4259 35.5656C14.2922 36.2651 15.1188 36.1933 7.1997 36.1933H0.166642L0.166721 35.8449Z" fill="#F88500"/>
</svg>
