<svg width="46" height="42" viewBox="0 0 46 42" fill="none" xmlns="http://www.w3.org/2000/svg">
<g clip-path="url(#clip0_269_2062)">
<path d="M0.235226 41.785L0 41.57V30.438V19.3059L0.235226 19.0909C0.389673 18.9497 0.578767 18.8759 0.785847 18.8759C1.07692 18.8759 2.03398 19.7284 13.2006 29.9347C24.3673 40.141 25.3 41.0157 25.3 41.2817C25.3 41.471 25.2192 41.6438 25.0648 41.785L24.8296 42H12.65H0.470458L0.235226 41.785ZM22.6167 40.5765C22.6167 40.5644 17.8729 36.2188 12.075 30.9197L1.53333 21.285V30.9418V40.5985H12.075C17.8729 40.5985 22.6167 40.5886 22.6167 40.5765ZM4.83523 37.5806L4.6 37.3656V33.5912V29.8169L4.83523 29.6019C4.98942 29.4609 5.17882 29.3869 5.38501 29.3869C5.67168 29.3869 6.05866 29.7151 9.74979 33.0887C13.4409 36.4624 13.8 36.8161 13.8 37.0781C13.8 37.2666 13.719 37.4397 13.5648 37.5806L13.3296 37.7956H9.20001H5.07046L4.83523 37.5806ZM11.1167 36.3716C11.1167 36.3592 9.99543 35.3249 8.62501 34.073L6.13334 31.7969V34.0955V36.3942H8.62501C9.99543 36.3942 11.1167 36.384 11.1167 36.3716V36.3716ZM23.7667 37.0978V36.3942L30.0677 36.3936C34.3675 36.3933 36.4905 36.3624 36.7521 36.2964C37.2675 36.1664 38.0842 35.4199 38.2265 34.9489C38.2847 34.7562 38.3325 34.3719 38.3328 34.0949L38.3334 33.5912H29.3686H20.4038L20.1686 33.3762L19.9334 33.1612V30.0876V27.0139L20.1686 26.7989L20.4038 26.5839H29.3686H38.3334V19.3806V12.1772L36.8001 13.5766L35.2667 14.976V19.8643V24.7525L35.0315 24.9675L34.7963 25.1825H26.0667H17.3371L17.1019 24.9675C16.8695 24.7551 16.8667 24.7333 16.8667 23.1719V21.5912H16.542C16.0548 21.5912 14.6071 21.1851 13.8479 20.8355C11.6382 19.8177 10.0694 18.0012 9.43169 15.7216C9.14408 14.6936 9.18766 12.9506 9.52675 11.9193C9.98798 10.5165 10.6429 9.49237 11.6886 8.53852C12.8013 7.52366 14.1637 6.83295 15.7777 6.46546C16.7554 6.24286 18.6881 6.26654 19.6938 6.51344C22.0607 7.09456 24.058 8.55772 25.1202 10.4887L25.4938 11.1679H28.2964H31.0989L34.7161 7.86089L38.3334 4.55389L38.3328 3.85359C38.3325 3.46842 38.2847 2.99562 38.2265 2.80292C38.0842 2.33187 37.2675 1.58537 36.7521 1.45535C36.2103 1.31867 9.7897 1.31867 9.24793 1.45535C8.73255 1.58537 7.91581 2.33187 7.77355 2.80292C7.69946 3.04825 7.66758 5.93009 7.66721 12.4161L7.66663 21.6788H6.8979H6.12917L6.15519 12.1487L6.18121 2.61854C6.74056 0.937143 7.71309 0.295542 9.05622 0H23H36.9437L37.5897 0.27969C38.7117 0.765462 39.6029 1.79284 39.7455 2.76504C39.7733 2.95449 39.8179 3.10949 39.8447 3.10949C39.8714 3.10949 40.2361 2.8101 40.6552 2.44417C41.6374 1.58648 42.069 1.40166 43.0771 1.40694C43.9718 1.41162 44.5644 1.63937 45.1513 2.20411C45.7441 2.77456 45.9415 3.22764 45.9463 4.0292C45.9532 5.18284 45.914 5.23288 42.6897 8.19055L39.8667 10.7801V18.682V26.5839H42.6981H45.5295L45.7648 26.7989L46 27.0139V30.0876V33.1612L45.7648 33.3762L45.5295 33.5912H42.7114H39.8932L39.8437 34.3849C39.8011 35.0682 39.7462 35.2674 39.4486 35.8177C39.0305 36.5909 38.4657 37.0928 37.5839 37.4746L36.9437 37.7518L30.3552 37.7766L23.7666 37.8014L23.7667 37.0978ZM44.4667 30.0876V27.9854H43.7H42.9334V28.6861V29.3869H42.1667H41.4V28.6861V27.9854H40.6334H39.8667V28.6861V29.3869H39.1H38.3334V28.6861V27.9854H37.5667H36.8V28.6861V29.3869H36.0334H35.2667V28.6861V27.9854H34.5H33.7334V28.6861V29.3869H32.9667H32.2V28.6861V27.9854H31.4334H30.6667V28.6861V29.3869H29.9H29.1334V28.6861V27.9854H28.3667H27.6V28.6861V29.3869H26.8334H26.0667V28.6861V27.9854H25.3H24.5334V28.6861V29.3869H23.7667H23V28.6861V27.9854H22.2334H21.4667V30.0876V32.1898H32.9667H44.4667V30.0876ZM33.7334 20.0819V16.3828L32.7856 17.2458L31.8379 18.1088L29.7081 18.4993C28.5366 18.7141 27.4758 18.8664 27.3507 18.8377C27.2256 18.809 27.0498 18.6831 26.9601 18.5579C26.8033 18.3392 26.8135 18.2524 27.2183 16.3476L27.6397 14.365L28.5964 13.4672L29.5531 12.5693H27.7603H25.9675L26.0282 13.5109C26.2693 17.2482 23.6406 20.4938 19.592 21.4576C19.2832 21.5311 18.8887 21.5912 18.7153 21.5912H18.4V22.6861V23.781H26.0667H33.7334V20.0819ZM17.1408 11.3353C17.3535 11.1779 17.5597 11.1679 20.5771 11.1679C23.4098 11.1679 23.7806 11.1522 23.7313 11.0348C23.5836 10.6831 22.8617 9.83781 22.2957 9.35383C21.5565 8.72185 20.684 8.25428 19.6618 7.94231C19.0183 7.74591 18.7666 7.71811 17.6333 7.71828C16.4844 7.71846 16.2538 7.74479 15.5729 7.95354C13.669 8.53729 12.3132 9.6071 11.4438 11.2117C10.4744 13.0006 10.4842 14.8888 11.4725 16.7709C11.8462 17.4827 12.0319 17.7128 12.7821 18.3942C13.8952 19.4051 15.017 19.9572 16.3947 20.1723L16.8188 20.2385L16.8667 15.8706L16.9146 11.5027L17.1408 11.3353ZM19.9957 19.8879C20.947 19.5722 21.6432 19.1525 22.4732 18.3942C23.3484 17.5946 23.852 16.8613 24.2177 15.854C24.4384 15.2461 24.473 15.0025 24.4788 14.0146C24.4824 13.3883 24.4544 12.8069 24.4166 12.7226C24.3531 12.5813 24.116 12.5693 21.3739 12.5693H18.4V16.4114V20.2535L18.8944 20.1713C19.1663 20.1262 19.6619 19.9986 19.9957 19.8879V19.8879ZM29.266 17.1648C29.5106 17.1313 29.7298 17.0756 29.7532 17.0411C29.7765 17.0066 29.587 16.7906 29.3321 16.5611C29.0771 16.3316 28.8475 16.1771 28.8219 16.2179C28.7962 16.2586 28.7457 16.4496 28.7096 16.6423C28.6735 16.835 28.6197 17.0676 28.5901 17.1592C28.5506 17.2814 28.5742 17.3124 28.6788 17.2758C28.7572 17.2483 29.0215 17.1983 29.266 17.1648ZM37.0395 11.3432L42.5971 6.26302L41.615 5.3654L40.6329 4.46778L35.0518 9.56888L29.4707 14.67L30.4263 15.5467C30.9518 16.0288 31.4044 16.4234 31.4319 16.4234C31.4594 16.4234 33.9828 14.1373 37.0395 11.3432V11.3432ZM44.0721 4.9035C44.6146 4.33869 44.6066 3.6344 44.0517 3.12725C43.4693 2.59492 42.5871 2.64085 41.9796 3.23513L41.7447 3.46501L42.6966 4.33834C43.2202 4.81868 43.6772 5.21168 43.7123 5.21168C43.7473 5.21168 43.9092 5.073 44.0721 4.9035V4.9035ZM9.20001 3.45985V2.75912H9.96668H10.7333V3.45985V4.16058H9.96668H9.20001V3.45985ZM12.2667 3.45985V2.75912H13.0333H13.8V3.45985V4.16058H13.0333H12.2667V3.45985ZM15.3333 3.45985V2.75912H16.1H16.8667V3.45985V4.16058H16.1H15.3333V3.45985Z" fill="#F88500"/>
</g>
<defs>
<clipPath id="clip0_269_2062">
<rect width="46" height="42" fill="white"/>
</clipPath>
</defs>
</svg>
